Coordinates
version=1
nRows=60
nColumns=12
inDegrees=yes

Units are S.I. units (second, meters, Newtons, ...)
Angles are in degrees

endheader
time	SC_y	SC_z	SC_x	AC_y	AC_z	AC_x	GH_y	GH_z	GH_yy	EL_x	PS_y
       0.0              -12.39          35.17          54.09          62.47         -19.44          -8.05         -51.92         -6.812          125.6          109.8          29.15
   0.01884               -12.4          35.17          54.09          62.47         -19.44         -8.047         -51.92         -6.812          125.6          109.7          29.17
   0.03768               -12.4          35.17          54.08          62.47         -19.43         -8.043         -51.92         -6.813          125.6          109.7          29.18
   0.05652              -12.41          35.17          54.07          62.47         -19.43         -8.038         -51.93         -6.814          125.5          109.7           29.2
   0.07536              -12.42          35.17          54.07          62.47         -19.43         -8.034         -51.93         -6.815          125.5          109.7          29.22
   0.09421              -12.42          35.17          54.06          62.47         -19.42         -8.029         -51.94         -6.816          125.5          109.7          29.24
     0.113              -12.43          35.16          54.05          62.47         -19.42         -8.024         -51.94         -6.817          125.4          109.7          29.27
    0.1319              -12.44          35.16          54.05          62.47         -19.41         -8.018         -51.94         -6.818          125.4          109.6          29.29
    0.1507              -12.45          35.16          54.04          62.47         -19.41         -8.013         -51.95         -6.819          125.4          109.6          29.32
    0.1696              -12.46          35.16          54.03          62.47          -19.4         -8.006         -51.96          -6.82          125.3          109.6          29.35
    0.1884              -12.47          35.16          54.02          62.47          -19.4         -7.999         -51.96         -6.821          125.3          109.6          29.38
    0.2073              -12.48          35.15          54.01          62.47         -19.39         -7.992         -51.97         -6.823          125.2          109.6          29.41
    0.2261              -12.49          35.15           54.0          62.47         -19.38         -7.984         -51.97         -6.824          125.2          109.5          29.45
    0.2449               -12.5          35.15          53.99          62.47         -19.37         -7.976         -51.98         -6.826          125.1          109.5          29.48
    0.2638              -12.51          35.15          53.97          62.48         -19.36         -7.966         -51.99         -6.827          125.1          109.5          29.52
    0.2826              -12.53          35.14          53.96          62.48         -19.36         -7.956          -52.0         -6.829          125.0          109.4          29.57
    0.3015              -12.54          35.14          53.94          62.48         -19.35         -7.945         -52.01         -6.831          124.9          109.4          29.62
    0.3203              -12.56          35.14          53.93          62.48         -19.34         -7.934         -52.02         -6.834          124.8          109.4          29.67
    0.3391              -12.58          35.13          53.91          62.48         -19.32         -7.921         -52.03         -6.836          124.8          109.3          29.73
     0.358               -12.6          35.13          53.89          62.48         -19.31         -7.907         -52.04         -6.839          124.7          109.3          29.79
    0.3768              -12.62          35.12          53.87          62.48          -19.3         -7.891         -52.05         -6.842          124.6          109.2          29.86
    0.3957              -12.65          35.12          53.84          62.48         -19.28         -7.874         -52.07         -6.845          124.4          109.1          29.94
    0.4145              -12.67          35.11          53.81          62.48         -19.26         -7.855         -52.08         -6.848          124.3          109.1          30.02
    0.4333               -12.7          35.11          53.79          62.48         -19.24         -7.834          -52.1         -6.852          124.2          109.0          30.11
    0.4522              -12.74           35.1          53.75          62.48         -19.22         -7.811         -52.12         -6.857          124.0          108.9          30.22
     0.471              -12.78          35.09          53.72          62.48          -19.2         -7.785         -52.14         -6.862          123.8          108.8          30.33
    0.4899              -12.82          35.08          53.67          62.49         -19.17         -7.756         -52.17         -6.867          123.7          108.7          30.46
    0.5087              -12.86          35.07          53.63          62.49         -19.14         -7.723         -52.19         -6.873          123.4          108.6          30.61
    0.5275              -12.92          35.06          53.58          62.49         -19.11         -7.686         -52.23          -6.88          123.2          108.5          30.77
    0.5464              -12.98          35.05          53.52          62.49         -19.07         -7.644         -52.26         -6.888          122.9          108.3          30.96
    0.5652              -13.05          35.03          53.45          62.49         -19.03         -7.596          -52.3         -6.897          122.6          108.2          31.18
    0.5841              -13.13          35.02          53.37           62.5         -18.98         -7.541         -52.35         -6.908          122.2          108.0          31.42
    0.6029              -13.22           35.0          53.28           62.5         -18.92         -7.477          -52.4          -6.92          121.8          107.8           31.7
    0.6218              -13.33          34.97          53.17           62.5         -18.85         -7.403         -52.46         -6.934          121.3          107.5          32.03
    0.6406              -13.45          34.95          53.05          62.51         -18.77         -7.317         -52.54          -6.95          120.7          107.2          32.42
    0.6594               -13.6          34.92          52.91          62.51         -18.68         -7.215         -52.62         -6.969          120.0          106.8          32.87
    0.6783              -13.77          34.88          52.74          62.52         -18.57         -7.094         -52.73         -6.992          119.2          106.4          33.41
    0.6971              -13.98          34.83          52.53          62.53         -18.44         -6.949         -52.85         -7.019          118.3          105.9          34.06
     0.716              -14.23          34.78          52.28          62.54         -18.28         -6.773          -53.0         -7.052          117.1          105.3          34.84
    0.7348              -14.54          34.71          51.98          62.55         -18.08         -6.559         -53.18         -7.093          115.6          104.5           35.8
    0.7536              -14.92          34.63           51.6          62.56         -17.84         -6.294          -53.4         -7.142          113.9          103.6          36.98
    0.7725               -15.4          34.53          51.14          62.58         -17.54         -5.964         -53.68         -7.205          111.7          102.5          38.45
    0.7913               -16.0          34.41          50.55           62.6         -17.16         -5.548         -54.03         -7.283          108.9          101.0           40.3
    0.8102              -16.76          34.24           49.8          62.62         -16.67          -5.02         -54.48         -7.383          105.3          99.17          42.65
     0.829              -17.74          34.04          48.84          62.66         -16.06         -4.343         -55.05          -7.51          100.8          96.81          45.67
    0.8478              -18.99          33.77          47.61           62.7         -15.26         -3.475         -55.78         -7.674          95.01          93.77          49.54
    0.8667              -20.59          33.43          46.04          62.76         -14.25         -2.366         -56.72         -7.883          87.59           89.9          54.48
    0.8855               -22.6           33.0          44.06          62.83         -12.98        -0.9717         -57.89         -8.145          78.26          85.02          60.69
    0.9044              -25.05          32.48          41.65          62.91         -11.43         0.7276         -59.33         -8.465          66.89          79.09          68.27
    0.9232              -27.89          31.88          38.86          63.01         -9.626          2.697         -60.99         -8.836          53.71           72.2          77.04
    0.9421              -30.96          31.23          35.84          63.12         -7.679           4.83         -62.79         -9.238          39.43          64.75          86.55
    0.9609              -34.03          30.57          32.82          63.23         -5.731          6.963         -64.59          -9.64          25.16           57.3          96.05
    0.9797              -36.87          29.97          30.02          63.33         -3.932          8.932         -66.25         -10.01          11.98          50.41          104.8
    0.9986              -39.32          29.45          27.62          63.41          -2.38          10.63         -67.69         -10.33         0.6103          44.48          112.4
     1.017              -41.33          29.02          25.64          63.49         -1.107          12.03         -68.87         -10.59         -8.721           39.6          118.6
     1.036              -42.93          28.68          24.07          63.54       -0.09388          13.13          -69.8          -10.8         -16.14          35.73          123.6
     1.055              -44.18          28.42          22.84          63.59          0.699           14.0         -70.54         -10.97         -21.95          32.69          127.4
     1.074              -45.16          28.21          21.88          63.62          1.317          14.68         -71.11         -11.09         -26.48          30.33          130.4
     1.093              -45.92          28.05          21.13          63.65            1.8          15.21         -71.55         -11.19         -30.02          28.48          132.8
     1.112              -46.52          27.92          20.54          63.67          2.179          15.62          -71.9         -11.27          -32.8          27.03          134.6
